<?xml version="1.0" encoding="UTF-8" standalone="no"?>
<svg
   xmlns:dc="http://purl.org/dc/elements/1.1/"
   xmlns:cc="http://creativecommons.org/ns#"
   xmlns:rdf="http://www.w3.org/1999/02/22-rdf-syntax-ns#"
   xmlns:svg="http://www.w3.org/2000/svg"
   xmlns="http://www.w3.org/2000/svg"
   xmlns:sodipodi="http://sodipodi.sourceforge.net/DTD/sodipodi-0.dtd"
   xmlns:inkscape="http://www.inkscape.org/namespaces/inkscape"
   id="svg2457"
   version="1.1"
   viewBox="0 0 92.604164 145.52084"
   height="550"
   width="350"
   sodipodi:docname="fgrx-application.svg"
   inkscape:version="0.92.4 (f8dce91, 2019-08-02)">
  <sodipodi:namedview
     pagecolor="#ffffff"
     bordercolor="#666666"
     borderopacity="1"
     objecttolerance="10"
     gridtolerance="10"
     guidetolerance="10"
     inkscape:pageopacity="0"
     inkscape:pageshadow="2"
     inkscape:window-width="1954"
     inkscape:window-height="1050"
     id="namedview4938"
     showgrid="false"
     inkscape:zoom="0.55092593"
     inkscape:cx="578.85401"
     inkscape:cy="582.3435"
     inkscape:window-x="2962"
     inkscape:window-y="277"
     inkscape:window-maximized="0"
     inkscape:current-layer="g2295" />
  <defs
     id="defs2451" />
  <metadata
     id="metadata2454">
    <rdf:RDF>
      <cc:Work
         rdf:about="">
        <dc:format>image/svg+xml</dc:format>
        <dc:type
           rdf:resource="http://purl.org/dc/dcmitype/StillImage" />
        <dc:title></dc:title>
      </cc:Work>
    </rdf:RDF>
  </metadata>
  <g
     transform="translate(0,-151.47916)"
     id="layer1">
    <g
       transform="translate(3471.3731,-10847.956)"
       id="g2332">
      <g
         id="g2295"
         transform="translate(-192.10084,-71.077311)">
        <path
           id="path2142"
           d="m -3269.9846,11074.72 a 1.650132,1.650132 0 0 0 -1.6484,1.65 v 132.291 a 1.650132,1.650132 0 0 0 1.6484,1.651 h 74.0839 a 1.650132,1.650132 0 0 0 1.6505,-1.651 v -132.291 a 1.650132,1.650132 0 0 0 -1.6505,-1.65 z m 1.6501,3.301 h 70.7832 v 128.992 h -70.7832 z"
           style="color:#000000;font-style:normal;font-variant:normal;font-weight:normal;font-stretch:normal;font-size:medium;line-height:normal;font-family:sans-serif;font-variant-ligatures:normal;font-variant-position:normal;font-variant-caps:normal;font-variant-numeric:normal;font-variant-alternates:normal;font-feature-settings:normal;text-indent:0;text-align:start;text-decoration:none;text-decoration-line:none;text-decoration-style:solid;text-decoration-color:#000000;letter-spacing:normal;word-spacing:normal;text-transform:none;writing-mode:lr-tb;direction:ltr;text-orientation:mixed;dominant-baseline:auto;baseline-shift:baseline;text-anchor:start;white-space:normal;shape-padding:0;clip-rule:nonzero;display:inline;overflow:visible;visibility:visible;opacity:1;isolation:auto;mix-blend-mode:normal;color-interpolation:sRGB;color-interpolation-filters:linearRGB;solid-color:#000000;solid-opacity:1;vector-effect:none;fill:#41ef7b;fill-opacity:0.94117647;fill-rule:evenodd;stroke:none;stroke-width:3.29993367;stroke-linecap:round;stroke-linejoin:round;stroke-miterlimit:4;stroke-dasharray:none;stroke-dashoffset:0;stroke-opacity:1;color-rendering:auto;image-rendering:auto;shape-rendering:auto;text-rendering:auto;enable-background:accumulate"
           inkscape:connector-curvature="0" />
        <path
           style="fill:none;fill-rule:evenodd;stroke:#41ef7b;stroke-width:1.32291663;stroke-linecap:butt;stroke-linejoin:round;stroke-miterlimit:4;stroke-dasharray:none;stroke-opacity:1"
           d="m -3264.6924,11192.787 v -100.541 h 63.5 v 100.541 z"
           id="path2144"
           inkscape:connector-curvature="0" />
        <path
           id="path2146"
           d="m -3271.169,11209.807 v 0 l 0.03,0.03 a 1.650132,1.650132 0 0 1 -0.029,-0.03 z"
           style="opacity:0.1;fill:#000000;fill-rule:evenodd;stroke:none;stroke-width:0.26458332px;stroke-linecap:butt;stroke-linejoin:miter;stroke-opacity:1"
           inkscape:connector-curvature="0" />
        <g
           id="flowRoot2271"
           style="font-style:normal;font-variant:normal;font-weight:600;font-stretch:normal;font-size:16px;line-height:125%;font-family:'Open Sans';-inkscape-font-specification:'Open Sans Semi-Bold';letter-spacing:0px;word-spacing:0px;fill:#41ef7b;fill-opacity:1;stroke:none;stroke-width:1px;stroke-linecap:butt;stroke-linejoin:miter;stroke-opacity:1"
           transform="matrix(5.1393886,0,0,5.1393886,-8136.6299,-133323.52)"
           aria-label="{}">
          <g
             transform="matrix(0.31331815,0,0,0.31331815,632.26714,19303.36)"
             id="g2280"
             style="fill:#41ef7b;fill-opacity:1">
            <path
               d="m 1018.5898,28110.711 q 0,-2.906 -4.1562,-2.906 v -2.985 q 2.1094,0 3.125,-0.703 1.0312,-0.719 1.0312,-2.172 v -4.859 q 0,-2.438 1.6875,-3.578 1.7032,-1.156 5.0938,-1.156 v 2.843 q -1.7813,0.08 -2.5938,0.735 -0.7968,0.64 -0.7968,1.922 v 4.64 q 0,3.11 -3.5782,3.719 v 0.187 q 3.5782,0.563 3.5782,3.704 v 4.671 q 0,1.282 0.7968,1.938 0.7969,0.656 2.5938,0.687 v 2.86 q -3.6094,-0.03 -5.2031,-1.235 -1.5782,-1.187 -1.5782,-3.859 z"
               style="font-style:normal;font-variant:normal;font-weight:600;font-stretch:normal;font-size:32px;font-family:'Open Sans';-inkscape-font-specification:'Open Sans Semi-Bold';fill:#41ef7b;fill-opacity:1"
               id="path2273"
               inkscape:connector-curvature="0" />
            <path
               d="m 1036.2252,28115.508 q 0,2.437 -1.5625,3.578 -1.5468,1.141 -4.9687,1.172 v -2.86 q 1.4844,-0.01 2.3125,-0.609 0.8281,-0.578 0.8281,-2.016 v -4.093 q 0,-1.891 0.8281,-2.922 0.8282,-1.031 2.75,-1.36 v -0.187 q -3.5781,-0.609 -3.5781,-3.719 v -4.64 q 0,-1.282 -0.7187,-1.922 -0.7032,-0.657 -2.4219,-0.735 v -2.843 q 3.4844,0 5,1.203 1.5312,1.187 1.5312,3.906 v 4.484 q 0,1.563 0.9844,2.219 1,0.656 2.9531,0.656 v 2.985 q -1.9218,0 -2.9375,0.672 -1,0.656 -1,2.234 z"
               style="font-style:normal;font-variant:normal;font-weight:600;font-stretch:normal;font-size:32px;font-family:'Open Sans';-inkscape-font-specification:'Open Sans Semi-Bold';fill:#41ef7b;fill-opacity:1"
               id="path2275"
               inkscape:connector-curvature="0" />
          </g>
        </g>
      </g>
    </g>
  </g>
</svg>
